<?xml version="1.0" encoding="utf-8"?>
<!-- Generator: Adobe Illustrator 19.0.0, SVG Export Plug-In . SVG Version: 6.00 Build 0)  -->
<svg version="1.1" id="Layer_1" xmlns="http://www.w3.org/2000/svg" xmlns:xlink="http://www.w3.org/1999/xlink" x="0px" y="0px"
	 viewBox="0 0 512 276" style="enable-background:new 0 0 512 276;" xml:space="preserve">
<style type="text/css">
	.st0{fill:#ED1F24;}
</style>
<g id="XMLID_3_">
	<g id="XMLID_1_">
		<path id="XMLID_4_" class="st0" d="M58.9,237.4L41.6,190l16.8-6.1c16.8-6.1,28-1.5,33.6,13.9c2.7,7.4,2.5,14.1-0.5,20.2
			c-3,6.1-8.3,10.5-15.9,13.3L58.9,237.4z M55.5,194.8l10.9,30l5.3-1.9c4.6-1.7,7.7-4.4,9.4-8.1c1.6-3.7,1.6-8-0.2-12.8
			c-1.6-4.5-4.2-7.6-7.8-9.2c-3.6-1.6-7.7-1.6-12.4,0.1L55.5,194.8z"/>
		<path id="XMLID_10_" class="st0" d="M98.8,178.5c-1.8,0.6-3.4,0.6-4.9,0c-1.5-0.6-2.5-1.7-3.1-3.2c-0.6-1.6-0.5-3,0.3-4.4
			c0.8-1.4,2-2.4,3.8-3.1c1.8-0.6,3.4-0.7,4.9-0.1s2.5,1.7,3.1,3.2c0.6,1.6,0.5,3.1-0.2,4.5C101.8,176.8,100.5,177.9,98.8,178.5z
			 M118.2,215.8l-10.4,3.8l-12.3-33.8l10.4-3.8L118.2,215.8z"/>
		<path id="XMLID_13_" class="st0" d="M124.4,212.5l-3.1-8.5c2.1,0.4,4.1,0.6,6,0.4c1.9-0.1,3.6-0.4,5.1-1c1.8-0.7,3.2-1.5,4.1-2.4
			s1.1-1.9,0.8-2.9c-0.2-0.7-0.7-1.1-1.3-1.4c-0.6-0.3-1.4-0.4-2.3-0.5c-0.9-0.1-1.8,0-2.8,0c-1,0.1-2,0.1-2.9,0.1
			c-1.5,0-2.9-0.1-4.1-0.3c-1.2-0.2-2.3-0.6-3.3-1.1c-1-0.5-1.8-1.2-2.6-2.1c-0.7-0.9-1.4-2-1.9-3.4c-0.7-1.9-0.9-3.7-0.5-5.3
			c0.3-1.7,1-3.2,2.1-4.6c1.1-1.4,2.4-2.6,4-3.6c1.6-1.1,3.4-1.9,5.3-2.6c1.5-0.5,3.1-1,4.7-1.3c1.6-0.3,3.3-0.5,4.9-0.7l2.9,8.1
			c-1.6-0.3-3.2-0.4-4.9-0.2c-1.6,0.2-3.2,0.5-4.7,1c-0.7,0.2-1.3,0.5-1.9,0.9c-0.6,0.3-1,0.7-1.4,1.1c-0.4,0.4-0.6,0.8-0.8,1.3
			c-0.1,0.5-0.1,0.9,0.1,1.4c0.2,0.6,0.6,1.1,1.2,1.4c0.6,0.3,1.2,0.5,2,0.6c0.8,0.1,1.6,0.1,2.4,0.1c0.9,0,1.7-0.1,2.6-0.1
			c1.6,0,3,0.1,4.3,0.2c1.3,0.2,2.5,0.5,3.6,1c1.1,0.5,2,1.2,2.8,2s1.5,2,2,3.5c0.7,2,0.9,3.9,0.6,5.6c-0.4,1.7-1.1,3.3-2.2,4.7
			c-1.1,1.4-2.5,2.7-4.3,3.8c-1.7,1.1-3.6,2-5.6,2.7C131.7,211.9,128,212.5,124.4,212.5z"/>
		<path id="XMLID_15_" class="st0" d="M181.9,191.2c-1.9,2.2-5,4.1-9.5,5.8c-5.2,1.9-10,1.8-14.3-0.1s-7.4-5.5-9.3-10.4
			c-2.1-5.7-2-10.9,0.2-15.5c2.2-4.6,6.2-7.9,12-10c4-1.5,7.1-2,9.2-1.6l3.2,8.9c-2.8-0.8-5.5-0.8-8.2,0.2c-3,1.1-5,2.8-6.2,5.2
			c-1.1,2.4-1.1,5.1,0,8.2c1.1,3,2.8,5,5.1,6.1s4.9,1.1,7.8,0c2.6-0.9,4.8-2.7,6.7-5.2L181.9,191.2z"/>
		<path id="XMLID_17_" class="st0" d="M205.6,184.9c-5.6,2.1-10.6,2.1-15,0.1c-4.4-2-7.6-5.7-9.5-11.1c-2-5.6-2-10.6,0.2-15
			c2.2-4.4,6.1-7.6,11.9-9.7c5.6-2,10.6-2.1,14.9-0.1s7.5,5.6,9.4,10.8c2,5.6,2,10.7-0.1,15.1C215.3,179.6,211.4,182.9,205.6,184.9z
			 M195.9,157.4c-2.5,0.9-4.1,2.4-4.8,4.6c-0.7,2.2-0.6,4.8,0.6,7.9c2.4,6.5,6.2,8.8,11.4,6.9c5-1.8,6.3-6.1,3.9-12.7
			C204.6,157.8,200.9,155.5,195.9,157.4z"/>
		<path id="XMLID_20_" class="st0" d="M263.2,163l-10.4,3.8L246,148c-1.9-5.2-4.7-7.2-8.5-5.8c-1.8,0.7-3,1.9-3.7,3.7
			c-0.7,1.8-0.6,3.8,0.2,5.9l7,19.3l-10.4,3.8l-12.3-33.8l10.4-3.8l1.9,5.4l0.1,0c1-5,3.9-8.4,8.6-10.1c7.5-2.7,12.9,0.6,16.3,9.9
			L263.2,163z"/>
		<path id="XMLID_22_" class="st0" d="M291.8,152.2c-1.2,1.4-3.4,2.6-6.5,3.8c-7.4,2.7-12.4,0.2-15.2-7.4l-5.6-15.5l-5.5,2l-2.8-7.7
			l5.5-2L259,118l9.3-6.8l3.7,10.3l7.6-2.8l2.8,7.7l-7.6,2.8l5,13.7c1.3,3.5,3.3,4.8,6.1,3.8c1.1-0.4,2.1-1.1,3.1-2.2L291.8,152.2z"
			/>
		<path id="XMLID_24_" class="st0" d="M288.9,109.3c-1.8,0.6-3.4,0.6-4.9,0c-1.5-0.6-2.5-1.7-3.1-3.2c-0.6-1.6-0.5-3,0.3-4.4
			c0.8-1.4,2-2.4,3.8-3.1c1.8-0.6,3.4-0.7,4.9-0.1c1.5,0.6,2.5,1.7,3.1,3.2c0.6,1.6,0.5,3.1-0.2,4.5
			C291.9,107.7,290.6,108.7,288.9,109.3z M308.3,146.6l-10.4,3.8l-12.3-33.8l10.4-3.8L308.3,146.6z"/>
		<path id="XMLID_27_" class="st0" d="M349.7,131.6l-10.4,3.8l-6.8-18.8c-1.9-5.2-4.7-7.2-8.5-5.8c-1.8,0.7-3,1.9-3.7,3.7
			c-0.7,1.8-0.6,3.8,0.2,5.9l7,19.3l-10.4,3.8l-12.3-33.8l10.4-3.8l1.9,5.4l0.1,0c1-5,3.9-8.4,8.6-10.1c7.5-2.7,12.9,0.6,16.3,9.9
			L349.7,131.6z"/>
		<path id="XMLID_29_" class="st0" d="M390.1,116.8l-10.4,3.8l-1.9-5.2l-0.2,0.1c-1.1,4.9-3.8,8.2-8.2,9.7
			c-7.8,2.9-13.5-0.5-16.9-10l-7.4-20.4l10.4-3.8l7.1,19.5c1.7,4.8,4.5,6.5,8.3,5.1c1.9-0.7,3.1-1.9,3.8-3.6s0.6-3.7-0.3-5.9
			l-7-19.4l10.4-3.8L390.1,116.8z"/>
		<path id="XMLID_31_" class="st0" d="M424.2,88.6l-22.1,8c2.1,4.8,6.1,6.1,12,4c3.7-1.4,6.7-3.4,8.8-6.2l2.7,7.5
			c-2.5,2.8-6.3,5.1-11.3,6.9c-5.5,2-10.3,2-14.4,0.1s-7.2-5.6-9.1-11c-2-5.6-2-10.7,0-15.1c2.1-4.5,5.5-7.6,10.2-9.3
			c4.9-1.8,9.3-1.7,13,0.2s6.6,5.4,8.4,10.5L424.2,88.6z M412.2,85.8c-1.8-4.8-4.6-6.6-8.5-5.1c-1.7,0.6-2.9,1.8-3.6,3.7
			c-0.7,1.8-0.8,3.8-0.3,6L412.2,85.8z"/>
		<path id="XMLID_34_" class="st0" d="M468.6,88.3l-10.4,3.8l-1.7-4.7l-0.1,0c-1,4.5-3.9,7.6-8.5,9.3c-4.2,1.5-8.2,1.3-11.8-0.8
			c-3.7-2-6.5-5.7-8.4-11.1c-2-5.6-2.2-10.6-0.6-15c1.6-4.4,4.7-7.4,9.3-9.1c4.4-1.6,8-1.1,10.8,1.4l0.1,0L440,42l10.4-3.8
			L468.6,88.3z M452.4,75.6l-0.9-2.5c-0.8-2.2-2.1-3.8-3.9-4.8s-3.7-1.1-5.8-0.4c-2.3,0.8-3.8,2.4-4.4,4.7c-0.6,2.3-0.4,5,0.8,8.2
			c1.1,3,2.5,5,4.4,6.2c1.8,1.2,3.9,1.3,6.1,0.5c2.1-0.8,3.5-2.2,4.2-4.4C453.6,80.8,453.4,78.4,452.4,75.6z"/>
	</g>
	<path id="XMLID_5_" class="st0" d="M468.5,20.2l26,71.4L43.5,255.8l-26-71.4L468.5,20.2 M474.5,7.4L4.7,178.4l32.8,90.2l469.8-171
		L474.5,7.4L474.5,7.4z"/>
</g>
</svg>
