<?xml version="1.0" encoding="utf-8"?>
<!-- Generator: Adobe Illustrator 19.0.0, SVG Export Plug-In . SVG Version: 6.00 Build 0)  -->
<svg version="1.1" id="Layer_1" xmlns="http://www.w3.org/2000/svg" xmlns:xlink="http://www.w3.org/1999/xlink" x="0px" y="0px"
	 viewBox="0 0 512 512" style="enable-background:new 0 0 512 512;" xml:space="preserve">
<style type="text/css">
	.st0{fill:#E34D26;}
	.st1{fill:#F06529;}
	.st2{fill:#EAEAEA;}
	.st3{fill:#FEFEFE;}
	.st4{fill:#E46746;}
	.st5{fill:#F06123;}
	.st6{fill:#E34218;}
	.st7{fill:#EAEEEF;}
	.st8{fill:#E9D9D5;}
	.st9{fill:#E34920;}
	.st10{fill:#EBF9FC;}
	.st11{fill:#EAF4F5;}
	.st12{fill:#E46543;}
	.st13{fill:#E8C8BF;}
	.st14{fill:#EF5A1A;}
	.st15{fill:#F06124;}
	.st16{fill:#EF5614;}
	.st17{fill:#E34A22;}
	.st18{fill:#E23D12;}
	.st19{fill:#EF5B1C;}
	.st20{fill:#E9D8D3;}
	.st21{fill:#EAEFF1;}
</style>
<g>
	<path class="st0" d="M257.4,116c57.3,0,114.6,0.1,172-0.1c5,0,5.9,1.3,5.5,5.9c-3.5,35.8-6.7,71.6-10,107.5
		c-3.5,38-7.1,75.8-10.6,113.8c-3.8,40.7-7.4,81.4-11,122c-0.3,2.9-1.3,4.2-4.1,5c-46.2,12.4-92.4,24.8-138.5,37.3
		c-2.2,0.6-4.1,0.7-6.3,0.1c-46-12.5-92-24.9-138-37.2c-3.2-0.9-4.1-2.2-4.4-5.3c-2.7-31-5.7-62-8.5-93c-2.8-30.7-5.5-61.3-8.3-92
		c-2.8-30.5-5.7-61-8.5-91.5c-2.1-22.9-4.1-45.8-6.4-68.7c-0.4-4,1.8-3.7,4.4-3.7c25.3,0,50.7,0,76,0C192.7,116,225.1,116,257.4,116
		z"/>
	<path class="st1" d="M257,186.8c0-12,0.1-24-0.1-36c-0.1-4.3,1.5-5.9,6.1-5.9c45,0.1,90,0.1,135,0.1c3.3,0,4.8-0.1,4.2,4.4
		c-1.7,12.7-2.2,25.4-3.4,38.1c-1.2,12.4-2.7,24.6-3.8,37c-0.9,9-1.3,18-2.1,27c-1.2,13.3-2.6,26.6-3.8,39.9
		c-0.8,8.5-1.4,17-2.2,25.5c-1.2,13.1-2.6,26.3-3.8,39.4c-0.8,8.5-1.4,17-2.2,25.5c-1.2,13.3-2.7,26.6-3.8,39.9
		c-0.6,7.1-1.1,14.1-1.9,21.2c-0.3,3.1-1.9,4.1-4.5,4.8c-12,3.2-24,6.4-36,9.6c-24,6.5-47.9,12.9-71.9,19.5
		c-4.9,1.4-5.9,0.8-5.9-4.2c-0.1-12-0.1-24,0.1-36c0-1.5,0-2.4-1.1-3.3c1.3-1.8,3.6-1.4,5.3-2.2c27.1-7.4,54.1-14.8,81.2-22.2
		c3.3-0.9,4.8-2.5,5.2-6c2.9-31.2,5.6-62.5,8.7-93.8c0.9-9.3,1.5-18.7,2.6-28c0.2-1.7,1.5-3.5-0.6-4.9c-2.1-0.6-4.3-0.3-6.5-0.4
		c-28.7,0-57.4,0-86.1,0c-2.5,0-5,0.2-7.4-0.4c-0.6-0.2-1.2-0.6-1.7-1c-0.2-0.6-0.2,0.2-0.2-0.4c-1.5-13.4-1.7-26.9,0.1-40.2
		c0.4-0.5,0.9-0.9,1.5-1.2c2.4-0.7,4.9-0.4,7.4-0.5c30.2,0,60.4,0,90.6,0c2.1,0,4.3,0.3,6.4-0.5c0.4-0.4,0.7-0.8,0.8-1.4
		c1.6-12.5,2.5-25.1,3.7-37.6c0.1-1.5,1.3-3-0.6-4.2c-2.1-0.6-4.3-0.3-6.5-0.3c-31.6,0-63.1,0-94.7,0c-2.5,0-5,0.4-7.4-0.7
		C257.5,187.2,257.2,187,257,186.8z"/>
	<path class="st2" d="M368.9,188.2c-0.3,1.2,0.2,2.6-0.8,3.7c-2.9-1.4-6-1.7-9.2-1.7c-30.8,0-61.6,0-92.4,0c-7.8,0-7.9,0.1-7.9,7.5
		c0,8.5,0,16.8,0,25.3c0,2.2,0.2,4.6-1.2,6.6c-2.1,1.8-4.7,1.3-7.2,1.3c-17.4,0.2-34.9-0.3-52.3,0.3c-0.5,0.2-0.9,0.5-1.2,1
		c-0.2,0.5-0.3,1-0.3,1.5c-0.5,3.7,1.2,7.2,1,10.9c0.8,8.8,1.7,17.5,2.4,26.2c0.3,1.3,0.3,2.5,0.7,3.8c0.3,0.5,0.7,0.8,1.2,1.1
		c16.1,0.7,32.3,0.1,48.4,0.3c2.4,0,5-0.5,7.2,1.3c2.1,13.3,2,26.7,0.1,40c-1.8,1.7-4,1.4-6.1,1.4c-28.7,0-57.3,0-86,0
		c-4.2,0-8-0.2-6.8-5.9c0,0-0.1,1-0.7,1c-1-2.3-0.9-4.8-0.8-7.2c0.9-2,0.3-4,0.4-5.5c0.3,0.4,0.2,1.2-0.6,1.9
		c-0.9-8.2-1.9-16.4-2.7-24.5c-2.7-29.1-5.4-58.2-8-87.3c-0.1-1,0-1.9-0.1-2.9c1.5-1.7,3.4-0.8,5.1-0.8c35.3-0.1,70.5-0.1,105.8-0.1
		c35.6,0,71.3,0,106.9,0.1C365.6,187.3,367.6,186.3,368.9,188.2z"/>
	<path class="st3" d="M257,317.2c0-13.3,0-26.6,0-39.9c-0.3-0.7-0.1-1.3,0.6-1.6c1.3-0.5,2.6-0.4,4-0.4c31.1,0,62.3,0,93.4,0
		c5.5,0,5.5,0.1,5.1,5c-1.8,20.3-3.5,40.7-5.4,60.9c-1.8,20.4-4,41-5.5,61.4c-0.4,4.8-2.1,6.5-6.7,7.7c-21,5.5-42,11.1-62.9,16.8
		c-6.2,1.8-12.2,4.1-18.7,4.8c-3,1.2-5.2,0.4-5.3-2.8c-0.3-13.7-1-27.5,0.3-41.1c0.9-0.3,2.2,0.5,2.9-0.9c1.6-1.9,4-2,6.3-2.6
		c11.7-3.1,23.4-6.3,35.1-9.2c3-0.8,5-1.9,5.4-5.4c1.5-14.3,2.9-28.6,3.9-42.9c0.1-1.1,0.2-2.2,0.4-3.3c0.6-3.9-2.5-3.1-4.6-3.1
		c-13.1-0.1-26.2,0-39.3-0.1c-2.3,0-4.6,0.2-6.9-0.3c-0.9-0.2-1.6-0.7-2.2-1.4C256.7,318.3,256.7,317.8,257,317.2z"/>
	<path class="st2" d="M256,388.1c1.1,1.9,1,4.1,1,6.1c0,11.2,0.1,22.3-0.1,33.5c0,2.9,0.5,4.8,4,4.3c-1.4,1.4-3.3,1-5,1.1
		c-28.7-7.8-57.3-15.7-86-23.5c-0.8-0.2-1.5-0.6-2.3-0.9c0-0.4,0.8-0.2,0.6-0.7c-0.1-0.3-0.5-0.4-0.6-0.7c-0.6,0.2-0.2,1-0.8,1.2
		c-2-2.3-1.2-5.2-1.5-7.8c-1.9-18.9-3.5-37.8-5.4-56.7c-0.3-2.8,0.5-3.7,3.4-3.7c12.5,0.1,25,0.2,37.5,0c3.1,0,3.9,1,4.2,3.8
		c0.7,8.9,1.9,17.7,2.4,26.7c0.2,3.5,1.8,4.6,4.9,5.4C227,380.1,241.7,383.5,256,388.1z"/>
	<path class="st1" d="M311,326.9c-1.3,15.2-2.6,30.4-3.9,45.5c-0.1,1.6-0.5,2.7-2.4,3.2c-15.3,3.7-30.3,8.5-45.8,11.7
		c-0.3-0.3-0.6-0.6-0.9-1c-0.8-1.2-0.5-2.5-0.5-3.8c0-19.1,0.1-38.2-0.1-57.2c0-4.1,1.3-5.3,5.4-5.3c13.3,0.2,26.6,0.1,39.9,0.1
		C310.1,320.1,310.1,320.1,311,326.9z"/>
	<path class="st4" d="M258,319c16.4,0,32.7,0.2,49.1,0.1c4.4,0,5.9,1.1,4.1,5.2c-0.4-3.2-2.4-3.8-5.5-3.7
		c-16.3,0.2-32.5,0.1-48.8,0.1c-31.2-0.1-62.3,0-93.5-0.1c-1.8,0-3.7,0.5-5.4-0.5c0-0.4,0-0.7,0-1.1c1.8-1.3,3.8-0.9,5.8-0.9
		c29.3,0,58.5,0,87.8,0C253.8,318.2,256,318.1,258,319z"/>
	<path class="st5" d="M257,320.1c16.4,0,32.9,0.1,49.3-0.1c3.3,0,5.1,0.8,4.8,4.2c-0.1,0.9-0.1,1.8-0.2,2.7c-0.4-5.8-4.3-6-9.1-5.9
		c-12.8,0.3-25.6,0.3-38.5,0c-4.6-0.1-5.5,1.4-5.5,5.5c0.2,20,0.1,39.9,0.1,59.8c-1.6-1.5-1-3.3-1-5.1c0-20.1,0-40.1,0-60.2
		c-0.4-0.2-0.5-0.4-0.4-0.6C256.8,320.2,256.9,320.1,257,320.1z"/>
	<path class="st6" d="M257,187.7c-13.5,0.1-27,0.2-40.5,0.2c-23.5,0.1-47,0.1-70.5,0.1c1.3-2.2,3.6-1.3,5.4-1.3
		c35.2-0.1,70.4-0.1,105.6-0.1l0,0c0.3,0.2,0.4,0.5,0.3,0.7C257.2,187.6,257.1,187.7,257,187.7z"/>
	<path class="st7" d="M257,317.2c0,0.3,0,0.7,0,1c-1.2,0.8-2.6,0.5-3.9,0.5c-30.4,0-60.8,0-91.2,0c-1.3,0-2.7,0.3-3.9-0.5
		c-0.1-1.5-0.2-3-0.3-4.5c0.1-1.8,0.3-3.5,0.5-6.4c1.6,9.9,1.6,9.9,11.4,9.9C198.8,317.2,227.9,317.2,257,317.2z"/>
	<path class="st8" d="M158.1,318.2c33,0,65.9,0,98.9,0c0.3,0.3,0.7,0.6,1,0.9c-33.3,0-66.6,0-100,0.1
		C157.9,318.8,158,318.5,158.1,318.2z"/>
	<path class="st9" d="M257,320.1c0,0.3,0,0.6,0,1c-31.1,0-62.2,0-93.3,0c-1.9,0-4,0.8-5.7-1C191,320.1,224,320.1,257,320.1z"/>
	<path class="st10" d="M156.9,302.9c0.1-0.7,0.2-1.3,0.3-1.9c0.6,1.8,1.5,3.7-0.1,5.5C157,305.2,156.9,304.1,156.9,302.9z"/>
	<path class="st11" d="M167,408.6c0.2-0.7-0.5-1.8,0.7-1.8c0.4,0,1.2,0.7,1.3,1.3c0.3,1-0.8,0.6-1.3,0.9h-0.4L167,408.6z"/>
	<path class="st3" d="M257,229.6c0-12.2,0.1-24.3-0.1-36.4c0-3.3,1-4.5,4.5-4.5c34.1,0.1,68.2,0.1,102.4,0c2.4,0,4.4,0.1,4.3,3.1
		c-1.1,13.1-2.2,26.3-3.3,39.5c-1.3,1.5-3,1.2-4.6,1.2c-33.5,0-67.1,0.1-100.6-0.1c-1-0.1-1.9-0.4-2.5-1.2
		C256.7,230.8,256.7,230.2,257,229.6z"/>
	<path class="st0" d="M198.9,271.5c-1.7-9.1-2-18.2-2.7-27.4c1-2.4,0.1-4.8-0.1-7.2c-0.2-2.9,1-4.8,4.1-4.8
		c17.9-0.2,35.8-0.2,53.7,0c1.2,0,2.3,0.4,3.1,1.3c0,13.6,0,27.3,0,40.9c-1.2,1.4-2.9,1.4-4.6,1.4c-15.9,0.1-31.8,0-47.6,0.1
		C201.5,275.7,199.5,274.7,198.9,271.5z"/>
	<path class="st12" d="M258,231.3c35.6,0,71.3,0,106.9,0c0,0.4,0.1,0.8,0.1,1.2c-1.7,0.9-3.6,0.5-5.4,0.5c-33.8,0-67.7,0-101.5,0
		c-20.1,0-40.1,0-60.2,0c-1,0-2,0.2-2.9-0.5c-0.1-0.3-0.1-0.6,0-1c1.4-1.3,3.1-1,4.7-1c17.8,0,35.6,0,53.4,0
		C254.8,230.6,256.4,230.8,258,231.3z"/>
	<path class="st13" d="M360.1,280.3c0.1-3-1-4.2-4.4-4.1c-32.9,0.2-65.8,0.1-98.8,0.2c-4.6,0.9-9.2,0.4-13.8,0.4
		c-13.1,0.1-26.2,0-39.3,0c-1.6,0-3.3,0.4-4.9-0.5c0-0.3,0-0.7,0-1c2.2-1,4.6-0.4,6.9-0.4c17.4-0.1,34.8,0,52.1,0
		c32.6,0,65.1,0,97.7,0c1.8,0,3.7-0.6,5.3,0.6C360.9,277.2,361.2,278.9,360.1,280.3z"/>
	<path class="st14" d="M257,187.7c0-0.4,0-0.7,0-1.1c35.4,0,70.7,0,106.1,0.1c2,0,4.4-1.1,5.8,1.4c-9.8-0.1-19.6-0.2-29.5-0.2
		C312,187.8,284.5,187.8,257,187.7z"/>
	<path class="st15" d="M257.9,232.6c35.7,0,71.4,0,107-0.1c-1.5,1.7-3.4,1-5.2,1c-33.9,0-67.9,0-101.8,0c-0.3-0.2-0.4-0.4-0.3-0.6
		C257.7,232.7,257.8,232.6,257.9,232.6z"/>
	<path class="st16" d="M361,275.5c-20.6-0.1-41.1-0.1-61.7-0.2c-13.8-0.1-27.5-0.1-41.3-0.2c-0.3-0.2-0.4-0.4-0.3-0.5
		c0.1-0.2,0.2-0.2,0.3-0.2c32.6,0,65.3,0,97.9,0C357.6,274.4,359.6,273.7,361,275.5z"/>
	<path class="st17" d="M257.9,232.6c0,0.3,0,0.6,0,0.9c-0.3,0-0.6,0-1,0c-18.1,0-36.2,0.2-54.3-0.1c-4.6-0.1-6.3,1.3-5.8,5.7
		c0.2,1.7,0.7,3.6-0.8,5.1c-0.3-3.9-0.7-7.8-1-11.6C216,232.5,237,232.5,257.9,232.6z"/>
	<path class="st18" d="M258,274.4c0,0.3,0,0.5,0,0.8c-19.6,0.1-39.3,0.1-58.9,0.2c-0.1-1.3-0.1-2.5-0.2-3.9c1.2,2.4,3.3,3,6,2.9
		c17.4-0.1,34.8-0.1,52.2-0.1C257.3,274.4,257.7,274.4,258,274.4z"/>
	<path class="st19" d="M353.5,366.6c0.8,1.9,0.7,3.5,0.1,5.5C352.8,370.1,352.9,368.5,353.5,366.6z"/>
	<path class="st20" d="M258,231.3c-21,0.1-42,0.1-63,0.2c0-0.4,0-0.7,0-1.1c1.2-0.8,2.6-0.5,3.9-0.5c18.1,0,36.2,0,54.2,0
		c1.3,0,2.7-0.3,3.9,0.5C257.3,230.9,257.7,231.2,258,231.3z"/>
	<path class="st7" d="M257,230.6c-20.7,0-41.3,0-62,0c1.5-1.6,3.4-1,5.2-1c18.9,0,37.9,0,56.8,0C257,229.9,257,230.3,257,230.6z"/>
	<path class="st21" d="M199,276.3c19.3,0,38.7,0,58,0.1c0,0.3,0,0.6,0,1c-17.6,0-35.2,0-52.8,0C202.4,277.3,200.5,277.9,199,276.3z"
		/>
</g>
<g>
	<path d="M139.9,95V63.7h-29.1V95H85.5V11h25.3v31.1h29.1V11h25.3v84H139.9z"/>
	<path d="M224.3,30.8V95h-25.4V30.8h-23.5V11h72.7v19.8H224.3z"/>
	<path d="M335.1,95V48.9c0-4.3,0.1-9.1,0.4-14.3l0.2-3.9H335c-1.3,6.6-2.2,11.2-2.9,13.7L319.7,95h-23.8L283,45.1
		c-0.4-1.2-1.3-6-2.8-14.3h-0.7c0.5,13.1,0.8,21.3,0.8,24.6V95h-22.2V11H296l11.5,45.6c0.3,0.9,0.6,2.8,1.1,5.7
		c0.4,2.9,0.7,5.1,0.8,6.7h0.4c0.4-3.6,1.1-7.8,2.1-12.6L322.7,11H360v84H335.1z"/>
	<path d="M376.5,95V11h25.3v64.2h28.9V95H376.5z"/>
</g>
</svg>
