<?xml version="1.0" encoding="utf-8"?>
<!-- Generator: Adobe Illustrator 19.0.0, SVG Export Plug-In . SVG Version: 6.00 Build 0)  -->
<svg version="1.1" id="Layer_1" xmlns="http://www.w3.org/2000/svg" xmlns:xlink="http://www.w3.org/1999/xlink" x="0px" y="0px"
	 viewBox="0 0 512 512" style="enable-background:new 0 0 512 512;" xml:space="preserve">
<style type="text/css">
	.st0{fill:#1071B9;}
	.st1{fill:#29AAE1;}
	.st2{fill:#EAEAEA;}
	.st3{fill:#FEFFFF;}
	.st4{fill:#F7F8F8;}
	.st5{fill:#F3F3F3;}
	.st6{fill:#EDEDED;}
	.st7{fill:#2BABE2;}
	.st8{fill:#E5E5E5;}
	.st9{fill:#F6F1ED;}
	.st10{fill:#106CB6;}
	.st11{fill:#1783C6;}
	.st12{fill:#B8CFDF;}
	.st13{fill:#3089C5;}
	.st14{fill:#1569B3;}
	.st15{fill:#126AB4;}
	.st16{fill:#166EB7;}
	.st17{fill:#ECECEB;}
	.st18{fill:#1480C4;}
	.st19{fill:#116DB6;}
	.st20{fill:#106DB6;}
	.st21{fill:#1568B3;}
	.st22{fill:#FFFFFF;}
	.st23{fill:#EEEDED;}
	.st24{fill:#E8E8E8;}
	.st25{fill:#E4E5E4;}
	.st26{fill:#E0E0DF;}
	.st27{fill:#D9D9D9;}
	.st28{fill:#22A4DE;}
	.st29{fill:#28A7DF;}
	.st30{fill:#2CAEE4;}
	.st31{fill:#1380C4;}
	.st32{fill:#2BADE4;}
	.st33{fill:#FAF3ED;}
</style>
<g id="XMLID_1_">
	<path id="XMLID_139_" class="st0" d="M256.8,116c57.3,0,114.6,0,171.9-0.1c3.8,0,5.4,0.1,5,4.8c-4.1,42.2-8,84.4-11.9,126.8
		c-2.9,31.4-5.6,62.9-8.5,94.4c-3.7,40.8-7.5,81.6-11.2,122.4c-0.3,3.2-1.4,4.6-4.8,5.4c-45.1,11.9-90.2,23.8-135.2,36
		c-4.3,1.2-8,1.2-12.3,0c-45-12.2-90.1-24.1-135.2-36.1c-3.3-0.9-4-2.2-4.3-5.3c-3.7-41.4-7.6-82.9-11.4-124.3
		c-2.4-26.6-4.9-53.2-7.3-79.8c-3.3-35.8-6.6-71.6-9.9-107.4c-1-11.1-1.8-22.3-3-33.4c-0.5-4.8,2.8-3.4,5.1-3.4c52,0,104,0,155.9,0
		C245.5,116,251.1,116,256.8,116z"/>
	<path id="XMLID_135_" class="st1" d="M400.5,152.1c-0.7,14.7-2.4,29.3-3.8,43.9c-1.2,12.3-2.1,24.4-3.2,36.7
		c-1.6,17-3.5,34-4.7,51.1c-0.9,11.8-2.2,23.4-3.2,35.2c-1.6,17.8-3.3,35.7-4.9,53.5c-1.1,12.1-2.1,24.1-3.1,36.2
		c-1,11.3-2.2,22.5-3,33.8c-0.2,3.2-2.5,3.5-4.6,4.1c-17.8,4.9-35.5,9.5-53.3,14.4c-19,5.2-38.1,10.4-57.1,15.6
		c-0.9,0.3-1.9,0.3-2.9,0.5c-0.4-0.5-0.6-1.1-0.5-1.8c0.2-12.2,0-24.2,0.1-36.4c0-2.4-0.2-4.9,1.6-6.9c6.2-3.8,13.4-4.9,20.2-6.8
		c21-5.8,41.9-11.9,63-17.3c3.8-1,5.7-3,6-6.7c1.1-16.1,3-32.2,4.3-48.4c1.7-20,3.2-40,5.5-59.9c0.5-4.2,0.4-8.4,1.2-12.5
		c0.4-2.6-0.8-4-3.6-4.1c-1.7-0.1-3.3-0.1-5-0.1c-26.5,0-53,0-79.4,0c-2,0-4,0.1-6-0.2c-1.2-0.2-3-0.1-3-1.8c0-1.6,1.6-1.8,3-1.9
		c28.9,2.5,57.8,0.5,86.7,1.1c1.6,0,3.2-0.1,3.5,0c-2.5,0-6.2,0-9.8,0c-23.3,0-46.6,0-69.8,0c-1.6,0-3.8,1-4.5-1.6
		c-1.2-2,0.6-2.6,1.9-3.4c2.2-0.7,4.3-1.7,6.3-2.7c0.4-0.2,0.8-0.4,1.3-0.5c3.5-1.1,6.6-3.1,10.1-4.3c4.5-1.5,8.6-3.8,12.9-5.6
		c1.8-0.4,3.5-1.3,5.3-1.8c4.6-1.8,9.2-3.7,13.7-5.8c3.8-1.5,7.6-2.9,11.2-4.8c3.4-1.3,6.7-2.6,10.1-4c5.8-2,11.1-5,16.9-7.1
		c1.1-0.4,2-1.1,2.5-2.2c2.4-9,2.1-18.5,3.3-27.7c0.5-3.5,0.8-7,1.4-10.5c0.3-1.5,0.9-2.9-1.4-3.5c-33.3-0.3-66.7,0-100-0.2
		c-2.6,0-5.4,0.6-7.7-1.3c-0.7-12.9-0.1-25.9-0.3-38.9c0-2.3,1.3-3.1,3.4-3.3c1.5-0.2,3-0.1,4.5-0.1c42.5,0,85,0,127.5,0
		c0.8,0,1.7,0,2.5,0c5.1,0.2,5.7,1,5.4,5.8C400.2,150.6,399.9,151.4,400.5,152.1z"/>
	<path id="XMLID_134_" class="st2" d="M255.5,432.5c-28.4-7.9-56.8-15.9-85.3-23.5c-3.9-1.1-5.5-2.5-5.8-6.7
		c-1.3-18.2-3.2-36.4-4.9-54.6c1.2-6.3,1.2-6.3,8.2-6.3c10.1,0,20.3,0,30.4,0c2.1,0,4.5-0.3,3.9,2.3c0.7-1.8-0.6-2.4-2.9-2.4
		c-12.1,0-24.3,0.1-36.4-0.1c-3.2,0-2.2,2.6-3.4,3.8c-1.8-4.1-0.5-5.4,4-5.3c11.8,0.3,23.6,0.3,35.4,0c3.8-0.1,4.7,1.2,5,4.6
		c0.7,8.9,1.8,17.7,2.6,26.5c0.2,2,0.8,3.2,2.9,3.8c13.8,3.6,27.5,7.2,41.3,10.9c1.3-0.4,2.5,0.1,3.7,0.4c1.4,0.6,3.3,0.5,3.8,2.4
		c-0.1,12.2,0,24.4-0.1,36.6c0,2.2,0,4.5-1,6.6C256.6,432.2,256.1,432.5,255.5,432.5z"/>
	<path id="XMLID_133_" class="st2" d="M254.5,317.6c-30.6-0.1-61.2-0.2-91.8-0.1c-4.4,0-6.3-0.7-6.7-5.5
		c-0.8-11.8-2.3-23.4-3.5-35.2c-0.1-1.2-0.4-2.3,1-2.9c18.5-1.7,37.1-0.5,55.7-0.8c5.9,0.3,11.9-0.3,17.8,0.1
		c3.8-0.1,7.6-0.1,11.3,0c10.4,0.2,10.2,0.3,5.5-8.9c-2.9-5.7-5.1-11.8-8.4-17.4c-0.7-1.1-1.4-2.9-0.5-3.6c3.1-2.2-1.7-1-0.8-1.9
		c3.2-1.7,6.5-3.2,10.1-3.9c0.3-0.1,0.9-0.2,0.9-0.1c0.3,7.7,5.5,13.6,8,20.5c1.4,4,2,7.9,1.9,10.1c-1.4-8.5-0.8-18.9-0.9-29.3
		c0-1.3-0.2-2.6,0.1-3.9c0.6-2.1,1.8-2,3.1-0.5c0.9,2.1,0.8,4.5,0.8,6.7c0,23.2,0.2,46.2-0.1,69.4c0,3.5,1,4.5,4.5,4.4
		c13.8-0.2,27.6-0.1,41.4,0c2.5,0,5.5-0.8,6.9,2.4c-1.8,1.8-4.3,1.6-6.5,1.6c-14.9,0-29.7,0.1-44.6,0c-0.6,0-1.2-0.1-1.8-0.2
		c-0.6,0-1.2-0.2-1.7-0.3C255.5,318.3,255,318,254.5,317.6z"/>
	<path id="XMLID_132_" class="st2" d="M148.7,229.9c-1-10.7-2.1-21.4-3.1-32.1c0.7-1.3,0.4-2.5,0.3-3.8c-0.5-5.4,0.1-6.2,5.8-6.2
		c32.9-0.1,65.9,0,98.8,0c3.5,0,6.3,0.7,6.4,5c0.1,11.2,0.1,22.3,0,33.5c0,1-0.3,1.9-0.8,2.7c-1.4,1.5-3.3,1.5-5.1,1.5
		c-33.5-0.1-67,0.3-100.5-0.2C149.8,230.3,149.2,230.2,148.7,229.9z"/>
	<path id="XMLID_131_" class="st3" d="M209.5,274.7c-17.1,0-34.1,0-51.2,0c-1.6,0-3.3,0.5-4.8-0.7c17.2-7.1,34.4-14.4,51.9-20.7
		c2.3,1.2,1.6,3.7,2.4,5.5c1.4,3.2,2.7,6.5,4.6,9.5C215.2,272.9,214.8,273.7,209.5,274.7z"/>
	<path id="XMLID_130_" class="st4" d="M209.5,274.7c3.7-1.1,4.1-3,1.9-5.9c-3.4-4.7-5.3-9.8-6-15.5c3.8-2.1,7.8-3.7,11.9-4.9
		c1.2-0.5,3.3-1,3,0.8c-1.3,6.9,3.4,11.8,5.7,17.5c1,2.6,3.4,5,1.4,8.1C221.5,274.7,215.5,274.7,209.5,274.7z"/>
	<path id="XMLID_129_" class="st5" d="M227.5,274.7c-1.1-7.3-6.2-13-8.3-19.9c-0.6-1.8-2.8-3.6,0.2-5.4c0.7-0.4,0-0.8-0.5-0.9
		c-0.5-0.1-1-0.1-1.5-0.1c3-1.9,6.4-3,9.9-4c0.5-0.3,1.1-0.3,1.3,0.2c2.5,9.1,8.2,17,11,26c0.4,1.4,1.1,2.7,0,4.1
		C235.5,274.7,231.5,274.7,227.5,274.7z"/>
	<path id="XMLID_128_" class="st6" d="M239.5,274.7c-2.1-9-7.6-16.7-10.6-25.5c-0.5-1.6-1.1-3.2-1.6-4.9c2.1-1.4,4.4-2.3,6.9-2.9
		c0.7,0.4,2.8-0.1,2.1,0.9c-1.8,2.7,0.1,4.6,1.3,6.1c4.4,6.1,5.7,13.6,9.9,19.8c3.4,5.2,2.3,6.4-4,6.4
		C242.1,274.7,240.8,274.7,239.5,274.7z"/>
	<path id="XMLID_127_" class="st7" d="M400.5,152.1c-0.1-7.9-5.7-6.9-11.1-6.9c-42,0.1-84,0.1-126-0.1c-4.8,0-6.2,1.3-6.1,5.9
		c0.3,11.7,0.1,23.3,0.1,35c1.7,1,3.6,0.5,5.4,0.5c33.1,0,66.1,0,99.2,0c1.8,0,3.7-0.4,5.4,0.5c1.3,1,1.3,1.9,0.1,2.9
		c-33.2-1-66.4-0.2-99.6-0.4c-3.1,0-6.3,0.2-9.4-0.3c-0.6-0.1-1.2-0.4-1.8-0.7c-0.6-0.4-0.7-1-0.5-1.7c0.1-14.2,0.1-28.5,0.2-42.7
		c1.8-1.4,3.8-1,5.8-1c44.5,0,89,0,133.4,0c2,0,4-0.4,5.7,1C401.7,147,401.2,149.6,400.5,152.1z"/>
	<path id="XMLID_126_" class="st8" d="M256.5,233.8c-1.4,0.1-1.2,1-1.2,2c0.1,12.3,0.1,24.5-0.3,36.9c0.2-10.8-5.4-19.7-10.4-28.6
		c-1.3-2.3-0.6-4.4-0.4-6.5c3.1-1.6,6.2-3.1,9.3-4.7c0.5-0.8,1.2-1.3,2.1-1.5c0.5,0,0.8,0.2,1.2,0.5
		C257.1,232.7,257,233.3,256.5,233.8z"/>
	<path id="XMLID_125_" class="st9" d="M255.5,228.9c0-11.9-0.1-23.6,0.1-35.5c0-3.3-0.9-4.5-4.5-4.5c-33.3,0.1-66.6,0.1-99.9,0
		c-3.8,0-5.2,1.2-4.7,4.7c0.2,1.4,0.5,2.9-0.9,4.1c-0.4-3.2-0.7-6.4-1.1-9.6c1.7-1.4,3.8-1,5.8-1c33.4,0,66.9,0,100.3,0
		c2,0,4,0,5.9,0.7v0.4c1.3,1.3,1.5,2.8,1.6,4.5c0.1,10.7,0.1,21.3,0,32c0,1.3-0.2,2.6-0.9,3.7C256.8,229,256.2,229.2,255.5,228.9z"
		/>
	<path id="XMLID_124_" class="st10" d="M256.5,143.3c1.5-1.6,3.4-1,5.2-1c44.9,0,89.8,0,134.7,0c1.7,0,3.7-0.7,5.2,1
		c-1.4,0.8-2.9,0.5-4.4,0.5c-45.4,0-90.8,0-136.2,0C259.4,143.8,257.9,144.2,256.5,143.3z"/>
	<path id="XMLID_123_" class="st11" d="M256.5,143.3c48.3,0,96.7,0,145,0c0,0.4,0,0.7,0,1.1c-48.3,0-96.6-0.1-145-0.1
		C256.5,144,256.5,143.6,256.5,143.3z"/>
	<path id="XMLID_122_" class="st12" d="M148.7,229.9c0.3,0,0.5,0,0.8,0c1.8-0.8,3.6-0.4,5.4-0.4c33.6,0,67.3,0,100.9,0
		c1.1,0,2.5-0.4,2.8,1.1c0.3,1.6-0.8,1.8-2.1,1.8c-0.1-0.1-0.2-0.3-0.2-0.5c-3.5-0.4-6.9-0.5-10.4-0.5c-30.7,0-61.4,0-92.2,0
		c-1.7,0-3.7,0.7-5.3-0.7C148.6,230.4,148.6,230.1,148.7,229.9z"/>
	<path id="XMLID_121_" class="st13" d="M256.5,187.8c-6.3,0.1-12.6,0.3-18.9,0.3c-31,0-62.1,0-93.1,0.1c0-0.4,0-0.7,0-1.1
		c1.1-0.7,2.2-0.5,3.4-0.5c34.9,0,69.8,0,104.7,0c1,0,2-0.1,2.9,0.4c0.3,0,0.6,0,0.8,0C256.4,187.3,256.4,187.6,256.5,187.8z"/>
	<path id="XMLID_120_" class="st14" d="M255.5,187c-37,0-74,0.1-111,0.1c1.6-1.7,3.8-1,5.7-1c34.8-0.1,69.5,0,104.3,0
		c0.3-0.5,0.7-0.5,1,0C255.5,186.4,255.5,186.7,255.5,187z"/>
	<path id="XMLID_119_" class="st15" d="M148.5,230.7c22.4,0.1,44.9,0.2,67.3,0.2c12,0,23.9,0,35.9,0c1.5,0,3.4-0.8,4.6,0.9
		c-0.8,0.7-1.7,1.3-2.8,1.2c-1.6-1.8-3.7-1.1-5.6-1.1c-31.3,0-62.6,0-93.9-0.1C152.2,231.9,150,232.7,148.5,230.7z"/>
	<path id="XMLID_118_" class="st16" d="M254.5,317.6c0.3,0,0.6,0,1,0c1.9,2,1.4,4.6,1.4,6.9c0.1,20.1,0,40.4,0.1,60.5
		c-0.3,2.3-1.7,2.3-3.4,1.5c-1-0.3-2-0.7-3-1c3.3-1,4.1-3,4.1-6.3C254.4,358.7,254.5,338.1,254.5,317.6z"/>
	<path id="XMLID_117_" class="st17" d="M159.3,345.1c-0.2-3.3,1.3-4.4,4.8-4.3c10.8,0.2,21.6,0.1,32.4,0.1c6.3,0,6.3,0,5.7,6.8
		c-1.5-1.7,0.5-4.6-1.8-5.4c-1.8-0.7-3.9-0.4-5.9-0.4c-8.5,0-17,0.3-25.4-0.1c-5-0.2-9-0.1-9.6,5.9
		C159.4,346.8,159.4,345.9,159.3,345.1z"/>
	<path id="XMLID_116_" class="st18" d="M255.5,432.5c0.3-0.1,0.7-0.1,1-0.2c0.2,0.3,0.3,0.6,0.5,0.8c-0.2,14.3,0.5,28.6-0.4,43
		c0,0.3,0,0.7,0,1c-0.4,0-0.7,0-1.1,0c-1.1-5.7-0.5-11.5-0.4-17.3c0.1-8.9-0.6-17.7,0.4-26.5C255.5,433,255.5,432.8,255.5,432.5z"/>
	<path id="XMLID_115_" class="st19" d="M255.5,433.2c0,14.6,0,29.2,0,43.8c-1.1-0.8-1-1.9-1-3c0-12.5,0-25.1,0-37.6
		C254.5,435.3,254.4,434.1,255.5,433.2z"/>
	<path id="XMLID_114_" class="st20" d="M255.5,186.1c-0.3,0-0.7,0-1,0c0-13.5,0-27.1,0-40.7c0.3,0,0.7,0,1,0
		C255.5,159.1,255.5,172.6,255.5,186.1z"/>
	<path id="XMLID_113_" class="st21" d="M159.3,358.4c0,1.8,0,3.7,0,5.5c-0.1,0-0.3,0-0.4,0.1c0-1.8,0-3.6,0-5.4
		C159,358.5,159.1,358.5,159.3,358.4z"/>
	<path id="XMLID_112_" class="st22" d="M256.6,232.3c0.5-0.5,1.7-0.6,1.4-1.6c-0.1-0.4-1-0.6-1.5-0.8c-0.3-0.2-0.5-0.4-0.3-0.7
		c0.1-0.2,0.2-0.3,0.3-0.3c0-13.6,0-27.1,0-40.8c20.8-0.1,41.6-0.2,62.5-0.2c14.7,0,29.3,0,44,0c1.7,0,4.3-1.2,4.7,1.9
		c-1.3,12.8-2.6,25.6-3.9,38.4c-0.1,1,0,1.9-1,2.5c-9.2,2.6-18.6,1-27.9,1.4c-5,0.3-10-0.2-15,0c-2.8,0.2-5.5-0.1-8.3,0
		c-3.7,0.2-7.3-0.1-11,0c-4.3,0.1-8.5,0-12.8,0c-3.8,0.1-7.5,0-11.3-0.1c-2.8,0-5.6-0.1-8.5-0.1c-3,0-4,1.2-2.8,3.9
		c1.7,3.9,2.9,7.9,4.9,11.7c3.3,5.9,5.5,12.3,8.5,18.4h-0.1c-2.2,0.6-4.2,1.5-6.1,2.7c-1.1,0.7-2.2,1.3-3.3,1.9
		c-1.4,1.8-3.5,2.1-5.7,2.2c-0.8,0.3-1.5,0.6-2.4,1c1.1,1.6,2.5,0.8,3.6,0.8c29.8,0,59.6,0.2,89.4-0.1c4.7,0,5.5,1.4,5.1,5.5
		c-3.6,37.9-7.1,76-10.6,113.9c-0.4,4.5,1,10-2.1,13c-2.8,2.7-8.2,2.9-12.5,4.1c-24.3,6.7-48.6,13.5-72.8,20.2
		c-1,0.3-1.8,0.7-2.8,1.1c-0.7,0.4-1.4,0.5-2.1,0.1l0.1-0.3c0-13.8,0-27.6,0.1-41.4c0-1.1,0.6-2.1,0.9-3.2c1.8-2.7,5-3,7.8-3.8
		c11.3-3.2,22.7-6.3,34-9.4c3.9-1.1,5.6-2.9,6-7c1.4-14.8,2.1-29.7,3.7-44.5c0.2-1.9,0-3.9,1.4-5.5c-1.5-1.6-3.4-0.9-5.2-0.9
		c-14.3-0.1-28.6-0.2-42.9,0.1c-4.5,0.1-6.2-0.3-6.1-5.6c0.5-25.7,0.2-51.4,0.2-77.1C256.5,233.3,256.6,232.8,256.6,232.3z"/>
	<path id="XMLID_111_" class="st4" d="M278.7,266.1c-2.5-1.6-3.5-4-4.6-6.6c-3.2-7.8-6.8-15.4-10.2-23.1c-2.2-5.1-1.8-5.4,3.6-5.5
		c2.7,0,5.3,0,8,0c1.6,0.9,3,1.9,3.7,3.8c3.1,7.7,7.1,15,10.2,22.7c0.6,1.5,1.4,3,0.1,4.6C285.8,263.1,282.6,265.4,278.7,266.1z"/>
	<path id="XMLID_110_" class="st5" d="M289.5,261.8c-2-7.8-6.3-14.7-9.4-22c-1.3-3-2.2-6.4-4.5-9c4,0,8,0,12,0
		c3.3,1.5,4.7,4.6,6,7.4c2.9,6,5.3,12.3,9,17.9C298.2,258.1,293.8,260,289.5,261.8z"/>
	<path id="XMLID_109_" class="st23" d="M302.5,256.2c-3.7-2.2-5.6-5.9-6.8-9.6c-1.8-5.7-5.1-10.6-8.2-15.7c4.3,0,8.7,0,13,0
		c4.2,2.2,4.5,7,6.9,10.4c1.1,1.6,1.5,3.6,2.5,5.3c2.1,3.4,1.8,6.1-2.4,7.6C305.9,254.8,304.2,255.5,302.5,256.2z"/>
	<path id="XMLID_108_" class="st24" d="M307.5,254.1c3.2-2.1,3-4.5,1.1-7.6c-3-5.1-5.5-10.4-8.1-15.7c3.7,0,7.3,0,11,0
		c1.8,1,3.1,2.4,3.9,4.2c1.9,4.5,4,8.9,6.1,13.2C316.8,250.3,312.2,252.2,307.5,254.1z"/>
	<path id="XMLID_107_" class="st25" d="M321.5,248.4c-2.1-1.5-3.4-3.3-4.2-5.7c-1.4-4.2-3.4-8-5.8-11.7c2.7,0,5.3,0,8,0
		c3.9,0.2,6.4,2,7.4,5.7c0.8,3.1,4.8,3.8,5.6,6.9C329.1,245.8,325.3,247,321.5,248.4z"/>
	<path id="XMLID_106_" class="st26" d="M332.5,243.6c-3-1.6-6-3.3-7-6.8c-0.9-3.2-2.9-5.1-6-5.8c5,0,10,0,15,0
		c4.2,0.2,7.8,1.2,8.9,5.8c0.3,1.2,0.4,2.1-0.9,2.7C339.3,241.3,336,242.7,332.5,243.6z"/>
	<path id="XMLID_105_" class="st27" d="M342.5,239.6c0-5.2-3.1-7.7-8-8.7c9.4,0,18.8,0.1,28.2,0.1
		C356.1,234.2,349.5,237.3,342.5,239.6z"/>
	<path id="XMLID_104_" class="st28" d="M367.5,187.1c-34.8,0-69.5,0-104.3,0c-1.9,0-4,0.8-5.7-1c34.8,0,69.5,0,104.3,0
		C363.7,186.2,365.8,185.5,367.5,187.1z"/>
	<path id="XMLID_103_" class="st29" d="M263.6,272.9c1.8-1,3.6-1.9,5.7-2.2c1.4,1.8,3.3,2.1,5.6,2.1c26.3-0.1,52.6-0.1,78.8,0
		c1.6,0,3.3-0.5,4.9,0.4c-0.9,0.8-1.9,0.5-2.9,0.5c-29.3,0-58.6,0-87.8,0C266.4,273.7,264.8,274.1,263.6,272.9z"/>
	<path id="XMLID_102_" class="st30" d="M256.4,432.5c0.7,0,1.4-0.1,2.1-0.1c-1.2,1.8-1,3.7-1,5.6c0,11,0,22,0,32.9
		c0,1.7,0.7,3.6-0.9,5.1C256.5,461.5,256.5,447,256.4,432.5z"/>
	<path id="XMLID_101_" class="st4" d="M272.5,268.7c1.4-2.1,3.5-2.9,6.1-2.7C276.8,267.5,274.8,268.3,272.5,268.7z"/>
	<path id="XMLID_100_" class="st1" d="M310.5,317.5c0.1,11.7-1.9,23.2-2.5,34.7c-0.3,5.9-1.2,11.9-1.5,17.8c-0.2,2.8-1.1,4.2-4.1,5
		c-15,4.1-30,8.4-44.9,12.6c-1.3-0.3-2.9,0.2-4-1.1c1-0.2,2.3,0.5,2.8-1c0-0.3,0.1-0.6,0.1-1c0.1-20.3,0-40.6,0.1-60.9
		c0-2-0.6-4.2,1-6C275.2,317.6,292.8,317.5,310.5,317.5z"/>
	<path id="XMLID_99_" class="st31" d="M256.3,385.5c-1.4-1.6-0.8-3.4-0.8-5.1c-0.1-20.9,0-41.9-0.1-62.8c0.3-0.1,0.6-0.1,1,0
		c0.7,0.8,0.5,1.8,0.5,2.8c0,20.9,0,41.8,0,62.8c0,0.8,0,1.7-0.4,2.3L256.3,385.5z"/>
	<path id="XMLID_98_" class="st32" d="M256.6,385.6c-0.1-22.7-0.1-45.3-0.2-67.9c0.4,0,0.7,0,1.1,0c0,20.9,0,41.9,0,62.8
		C257.5,382.2,258.1,384,256.6,385.6z"/>
	<path id="XMLID_97_" class="st33" d="M256.5,228.9c0,0.3,0,0.7,0,1c-35.7,0-71.3-0.1-107-0.1c0.1-0.7-0.2-2.1,0.8-1.8
		c9,2.3,18.1,0.9,27.2,0.9c26,0.3,52,0.1,78,0.1C255.8,228.9,256.2,228.9,256.5,228.9z"/>
</g>
<g>
	<path d="M188.5,60.3l23.3,7c-1.6,6.5-4,12-7.4,16.3c-3.4,4.4-7.5,7.7-12.5,9.9s-11.3,3.3-19,3.3c-9.3,0-17-1.4-22.9-4.1
		c-5.9-2.7-11-7.5-15.3-14.3c-4.3-6.8-6.4-15.6-6.4-26.2c0-14.2,3.8-25.1,11.3-32.8s18.3-11.4,32.1-11.4c10.8,0,19.3,2.2,25.5,6.6
		c6.2,4.4,10.8,11.1,13.8,20.2L187.5,40c-0.8-2.6-1.7-4.5-2.6-5.7c-1.5-2-3.3-3.6-5.4-4.7c-2.1-1.1-4.6-1.6-7.2-1.6
		c-6,0-10.6,2.4-13.8,7.3c-2.4,3.6-3.6,9.2-3.6,16.9c0,9.5,1.4,16,4.3,19.6c2.9,3.5,7,5.3,12.2,5.3c5.1,0,8.9-1.4,11.5-4.3
		C185.4,69.9,187.3,65.7,188.5,60.3z"/>
	<path d="M220,67l25.3-1.6c0.5,4.1,1.7,7.2,3.3,9.4c2.7,3.5,6.6,5.2,11.7,5.2c3.8,0,6.7-0.9,8.8-2.7c2.1-1.8,3.1-3.8,3.1-6.2
		c0-2.2-1-4.2-2.9-6s-6.5-3.4-13.6-5c-11.6-2.6-19.9-6.1-24.9-10.4c-5-4.3-7.5-9.9-7.5-16.6c0-4.4,1.3-8.6,3.8-12.5
		c2.6-3.9,6.4-7,11.5-9.3c5.1-2.2,12.2-3.4,21.1-3.4c11,0,19.3,2,25.1,6.1c5.8,4.1,9.2,10.6,10.3,19.5l-25,1.5
		c-0.7-3.9-2.1-6.7-4.2-8.4s-5.1-2.6-8.8-2.6c-3.1,0-5.4,0.7-7,2c-1.6,1.3-2.3,2.9-2.3,4.8c0,1.4,0.6,2.6,1.9,3.7
		c1.2,1.1,4.2,2.2,8.9,3.2c11.6,2.5,19.9,5,24.9,7.6c5,2.6,8.7,5.7,11,9.5c2.3,3.8,3.4,8,3.4,12.7c0,5.5-1.5,10.6-4.6,15.2
		c-3,4.6-7.3,8.2-12.8,10.6s-12.4,3.6-20.7,3.6c-14.6,0-24.7-2.8-30.4-8.4S220.7,75.7,220,67z"/>
	<path d="M306.7,67l25.3-1.6c0.5,4.1,1.7,7.2,3.3,9.4c2.7,3.5,6.6,5.2,11.7,5.2c3.8,0,6.7-0.9,8.8-2.7c2.1-1.8,3.1-3.8,3.1-6.2
		c0-2.2-1-4.2-2.9-6c-2-1.8-6.5-3.4-13.6-5c-11.6-2.6-19.9-6.1-24.9-10.4c-5-4.3-7.5-9.9-7.5-16.6c0-4.4,1.3-8.6,3.8-12.5
		s6.4-7,11.5-9.3c5.1-2.2,12.2-3.4,21.1-3.4c11,0,19.3,2,25.1,6.1c5.8,4.1,9.2,10.6,10.3,19.5l-25,1.5c-0.7-3.9-2.1-6.7-4.2-8.4
		c-2.1-1.8-5.1-2.6-8.8-2.6c-3.1,0-5.4,0.7-7,2c-1.6,1.3-2.3,2.9-2.3,4.8c0,1.4,0.6,2.6,1.9,3.7c1.3,1.1,4.2,2.2,8.9,3.2
		c11.6,2.5,19.9,5,24.9,7.6c5,2.6,8.7,5.7,11,9.5c2.3,3.8,3.4,8,3.4,12.7c0,5.5-1.5,10.6-4.6,15.2c-3,4.6-7.3,8.2-12.8,10.6
		c-5.5,2.4-12.4,3.6-20.7,3.6c-14.6,0-24.7-2.8-30.4-8.4S307.4,75.7,306.7,67z"/>
</g>
</svg>
