<?xml version="1.0" encoding="utf-8"?>
<!-- Generator: Adobe Illustrator 16.0.0, SVG Export Plug-In . SVG Version: 6.00 Build 0)  -->
<!DOCTYPE svg PUBLIC "-//W3C//DTD SVG 1.1//EN" "http://www.w3.org/Graphics/SVG/1.1/DTD/svg11.dtd">
<svg version="1.1" id="Layer_1" xmlns="http://www.w3.org/2000/svg" xmlns:xlink="http://www.w3.org/1999/xlink" x="0px" y="0px"
	 width="450px" height="450px" viewBox="0 0 450 450" enable-background="new 0 0 450 450" xml:space="preserve">
<g>
	<path fill-rule="evenodd" clip-rule="evenodd" fill="#7C2491" d="M413.428,311.591c0.015-58.102,0.002-116.205-0.003-174.306
		c0-6.278-1.855-12.022-4.958-17.414c-1.427,0.49-2.977,0.762-4.258,1.501c-23.89,13.799-71.647,39.879-77.635,43.28
		s-31.426,18.105-47.071,27.278c-17.971,8.736-34.632,19.798-52.12,29.394c-1.787,0.98-4.01,1.995-3.783,4.75
		c6.783,4.759,14.403,8.044,21.496,12.261c10.64,6.324,38.5,21.741,40.311,22.867c5.547,3.445,53.016,29.188,55.539,30.592
		c13.446,7.477,26.999,14.787,40.143,22.773c8.837,5.367,26.523,16.365,26.523,16.365c0.798-1.185,3.946-6.45,4.973-11.551
		C412.958,317.735,413.425,313.3,413.428,311.591z"/>
	<path fill-rule="evenodd" clip-rule="evenodd" fill="#7C2491" d="M396.851,107.775c-30.458-17.596-61.05-34.958-91.598-52.397
		c-21.296-12.32-42.554-24.705-63.903-36.93c-11.15-6.385-22.491-6.07-33.573,0.196c-14.793,8.366-29.462,16.95-44.193,25.424
		c-36.089,20.758-72.168,41.534-108.285,62.245c-11.551,6.624-17.911,16.393-17.987,29.769
		c-0.328,58.069-0.541,110.453-0.747,168.522c-0.009,2.559,0.416,13.883,1.031,17.06c1.667,5.873,1.667,5.873,5.049,10.546
		c24.826-14.861,49.359-30.238,75.532-42.703c0.43-2.127,217.646-126.837,219.123-127.708c14.775-8.715,29.797-17.011,44.503-25.839
		c8.898-5.341,18.55-9.445,26.664-16.088C405.5,114.965,401.74,110.599,396.851,107.775z"/>
	<path fill-rule="evenodd" clip-rule="evenodd" fill="#7C2491" d="M401.865,324.511c-20.243-11.521-40.589-22.863-60.804-34.434
		c-2.882-1.65-115.979-64.714-115.979-64.714s-107.901,60.731-110.152,62.034c-21.293,12.334-24.521,13.699-45.833,26
		c-2.024,1.168-27.026,18.019-27.026,18.019c2.487,3.895,8.58,9.542,12.537,11.851c12.913,7.539,23.521,13.433,36.514,20.835
		c4.58,2.736,9.114,5.555,13.747,8.201c19.889,11.355,39.807,22.66,59.714,33.986c15.623,9.527,31.189,19.256,47.721,27.057
		c9.893,4.666,20.459,3.393,30.19-2.207c51.143-29.426,102.298-58.832,153.442-88.252c5.017-2.885,9.41-8.125,11.676-11.953
		C407.612,330.933,404.317,325.903,401.865,324.511z"/>
	<path fill-rule="evenodd" clip-rule="evenodd" fill="#FDFDFE" d="M198.029,268.133c2.003-4.245,1.14-8.902,2.047-13.295
		c1.176-5.686,0.433-9.509-7.103-8.485c-5.432,0.739-4.862-3.084-4.99-6.439c-0.152-4.014,0.196-7.14,5.815-6.868
		c2.856,0.138,7.313,1.637,8.277-2.051c1.347-5.16,1.495-10.694,1.442-16.063c-0.02-2.1-3.005-1.837-4.735-1.62
		c-6.483,0.816-6.874-2.745-6.962-7.628c-0.094-5.102,2.394-6.431,6.837-5.853c5.74,0.75,7.938-1.802,8.03-7.021
		c0.059-3.302,0.741-6.592,0.833-9.896c0.214-7.639,6.153-4.962,10.302-5.367c5.786-0.563,4.604,3.392,4.422,6.603
		c-0.104,1.801-0.629,3.632-0.42,5.391c0.458,3.845-4.941,9.96,4.752,10.372c7.614,0.324,12.387-0.756,12.365-9.686
		c-0.015-5.783-2.245-14.296,9.672-12.888c4.419,0.523,6.292,1.523,5.558,5.884c-0.451,2.667-0.246,5.455-0.858,8.075
		c-1.346,5.753-0.539,8.407,6.932,8.817c10.129,0.556,3.688,8.513,4.722,13.179c-16.64,0.13-13.278-2.011-15.329,12.9
		c-0.683,4.962,0.124,7.683,5.959,6.94c6.238-0.791,5.985,3.082,6.196,7.304c0.245,4.878-1.843,6.666-6.556,5.968
		c-6.784-1.007-8.832,2.235-8.671,8.166c0.088,3.281-0.955,6.592-0.855,9.871c0.237,7.714-5.302,6.447-10.222,6.555
		c-7.504,0.161-4.333-4.818-4.34-8.195c-0.005-2.095,0.657-4.226,0.448-6.282c-0.4-3.922,4.348-10.135-5.2-10.199
		c-6.868-0.046-12.574-0.095-11.749,9.007c0.321,3.529-0.677,7.166-1.037,10.754c-0.366,3.651-1.794,6.419-6.117,6.598
		C203.507,272.842,199.088,273.672,198.029,268.133z"/>
	<path fill-rule="evenodd" clip-rule="evenodd" fill="#FEFEFE" d="M328.75,284.489c-9.289-5.441-18.21-10.662-27.5-16.101
		c-0.536,1.02-0.972,1.755-0.972,1.755c-11.046,16.599-25.107,28.372-43.921,35.447c-5.979,2.249-12.237,3.357-18.388,4.918
		c-13.939,0.869-27.693,0.426-41.079-4.377c-10.211-3.665-19.185-9.354-27.836-15.694c-6.427-6.473-12.85-12.954-17.513-20.908
		c-7.227-11.711-11.137-24.528-12.728-38.119c-0.768-4.857-0.747-9.713-0.006-14.571c-0.026-6.561,1.345-12.852,3.676-18.954
		c4.758-12.206,10.678-23.764,19.975-33.187c22.136-22.436,48.918-30.731,79.93-25.79c23.967,4.987,42.817,17.623,56.553,37.877
		c0.917,1.349,1.817,2.761,2.349,4.157c0,0,13.834-7.985,31.311-18.076c0.587-2.719-1.222-4.533-2.542-6.478
		c-19.802-29.197-46.973-47.411-81.522-54.599c-44.703-7.125-83.311,4.833-115.219,37.175c-13.4,13.583-21.935,30.243-28.793,47.838
		c-3.36,8.797-5.336,17.865-5.299,27.322c-1.069,7.001-1.099,14.003,0.007,21.003c2.293,19.592,7.93,38.068,18.348,54.949
		c6.723,11.465,15.979,20.807,25.244,30.139c12.471,9.141,25.406,17.338,40.126,22.621c19.295,6.924,39.123,7.563,59.216,6.311
		c8.865-2.25,17.887-3.848,26.506-7.09c27.119-10.197,47.97-28.039,63.894-51.965C333.857,286.483,330.905,285.749,328.75,284.489z"
		/>
	<path fill-rule="evenodd" clip-rule="evenodd" fill="#7C2491" d="M234.378,222.287c-0.754,9.944-1.132,10.019-10.479,9.605
		c-4.915-0.217-4.342-2.59-4.027-5.768c1.107-11.19,1.024-10.788,10.138-10.737C236.478,215.424,234.331,219.21,234.378,222.287z"/>
</g>
</svg>
