<?xml version="1.0" encoding="utf-8"?>
<!-- Generator: Adobe Illustrator 16.0.0, SVG Export Plug-In . SVG Version: 6.00 Build 0)  -->
<!DOCTYPE svg PUBLIC "-//W3C//DTD SVG 1.1//EN" "http://www.w3.org/Graphics/SVG/1.1/DTD/svg11.dtd">
<svg version="1.1" id="Layer_1" xmlns="http://www.w3.org/2000/svg" xmlns:xlink="http://www.w3.org/1999/xlink" x="0px" y="0px"
	 width="450px" height="450px" viewBox="0 0 450 450" enable-background="new 0 0 450 450" xml:space="preserve">
<g>
	<path fill-rule="evenodd" clip-rule="evenodd" fill="#81CE3E" d="M413.428,311.591c0.015-58.102,0.002-116.205-0.003-174.306
		c0-6.278-1.855-12.022-4.958-17.414c-1.427,0.49-2.977,0.762-4.258,1.501c-23.89,13.799-71.647,39.879-77.635,43.28
		s-31.426,18.105-47.071,27.278c-17.971,8.736-34.632,19.798-52.12,29.394c-1.787,0.98-4.01,1.995-3.783,4.75
		c6.783,4.759,14.403,8.044,21.496,12.261c10.64,6.324,38.5,21.741,40.311,22.867c5.547,3.445,53.016,29.188,55.539,30.592
		c13.446,7.477,26.999,14.787,40.143,22.773c8.837,5.367,26.523,16.365,26.523,16.365c0.798-1.185,3.946-6.45,4.973-11.551
		C412.958,317.735,413.425,313.3,413.428,311.591z"/>
	<path fill-rule="evenodd" clip-rule="evenodd" fill="#81CE3E" d="M396.851,107.775c-30.458-17.596-61.05-34.958-91.598-52.397
		c-21.296-12.32-42.554-24.705-63.903-36.93c-11.15-6.385-22.491-6.07-33.573,0.196c-14.793,8.366-29.462,16.95-44.193,25.424
		c-36.089,20.758-72.168,41.534-108.285,62.245c-11.551,6.624-17.911,16.393-17.987,29.769
		c-0.328,58.069-0.541,110.453-0.747,168.522c-0.009,2.559,0.416,13.883,1.031,17.06c1.667,5.873,1.667,5.873,5.049,10.546
		c24.826-14.861,49.359-30.238,75.532-42.703c0.43-2.127,217.646-126.837,219.123-127.708c14.775-8.715,29.797-17.011,44.503-25.839
		c8.898-5.341,18.55-9.445,26.664-16.088C405.5,114.965,401.74,110.599,396.851,107.775z"/>
	<path fill-rule="evenodd" clip-rule="evenodd" fill="#81CE3E" d="M401.865,324.511c-20.243-11.521-40.589-22.863-60.804-34.434
		c-2.882-1.65-115.979-64.714-115.979-64.714s-108.109,62.439-110.36,63.742c-21.293,12.334-22.813,12.949-44.125,25.25
		c-2.024,1.168-28.299,17.374-28.299,17.374c2.487,3.895,8.353,9.229,12.311,11.537c12.913,7.539,23.521,13.433,36.514,20.835
		c4.58,2.736,9.114,5.555,13.747,8.201c19.889,11.355,39.807,22.66,59.714,33.986c15.623,9.527,31.189,19.256,47.721,27.057
		c9.893,4.666,20.459,3.393,30.19-2.207c51.143-29.426,102.298-58.832,153.442-88.252c5.017-2.885,9.41-8.125,11.676-11.953
		C407.612,330.933,404.317,325.903,401.865,324.511z"/>
</g>
<g>
	<path fill-rule="evenodd" clip-rule="evenodd" fill="#FFFFFF" d="M271.624,164.142c-6.421-3.592-11.689-8.295-15.584-14.08
		c-4.528-6.729-4.027-11.419,1.662-17.45c5.31-5.626,12.226-9.607,18.396-14.353c11.052-8.5,13.448-12.822,13.675-25.896
		c4.39,5.788,3.832,11.334,1.291,16.875c-2.933,6.392-8.124,11.268-13.795,15.773c-3.436,2.728-7.041,5.322-10.169,8.317
		c-7.085,6.787-7.734,13.568-2.32,21.475C266.952,157.976,269.336,161.033,271.624,164.142z"/>
	<path fill-rule="evenodd" clip-rule="evenodd" fill="#FFFFFF" d="M281.678,169.554c3.139-5.75,0.767-9.874-2.899-14.163
		c-7.79-9.109-6.552-17.121,3.216-24.572c5.586-4.263,11.989-7.062,19.528-7.982c-3.11,2.033-6.309,3.967-9.316,6.116
		c-11.468,8.2-12.074,11.642-4.154,22.456C293.414,158.728,291.489,164.832,281.678,169.554z"/>
	<path fill-rule="evenodd" clip-rule="evenodd" fill="#FFFFFF" d="M260.002,233.143c25.069,0.82,37.881-0.539,58.808-7.532
		c3.531-1.178,7.781-3.492,11.751-6.498c-2.873,6.742-7.316,8.142-11.478,9.676c-11.246,4.146-21.948,6.957-33.615,7.578
		c-11.06,0.589-21.104-0.034-29.461-1.492c-5.327-0.729-11.603-3.743-11.107-3.918C244.9,230.957,251.463,232.505,260.002,233.143z"
		/>
	<path fill-rule="evenodd" clip-rule="evenodd" fill="#FFFFFF" d="M232.759,209.428c-11.751,3.934-7.644,6.668-5.093,7.851
		c4.712,2.184,11.73,3.746,16.687,4.192c22.85,2.056,30.871,1.361,50.844-1.347c15.146-3.038,23.917-6.321,27.263-10.696
		c-0.394,3.326-4.486,7.471-6.393,8.586c-7.859,4.604-11.576,5.844-20.243,7.334c-16.714,2.875-41.33,4.763-64.71,0.04
		c-2.584-0.522-14.326-3.369-14.354-7.117c-0.025-3.36,2.854-5.865,5.346-6.914C226.02,209.71,229.031,208.999,232.759,209.428z"/>
	<path fill-rule="evenodd" clip-rule="evenodd" fill="#FFFFFF" d="M311.522,168.304c7.276-3.473,14.273-1.549,17.519,4.813
		c2.984,5.854,1.424,12.437-4.635,18.43c-4.139,4.094-8.838,6.997-15.493,8.229c3.729-3.382,6.68-5.734,9.294-8.513
		c3.781-4.021,6.997-8.604,5.38-15.182C322.345,171.032,319.161,169.144,311.522,168.304z"/>
	<path fill-rule="evenodd" clip-rule="evenodd" fill="#FFFFFF" d="M297.011,209.818c-13.469,5.833-32.456,8.02-45.384,3.467
		c-1.549-0.545-2.991-1.691-4.323-2.817c-1.192-1.01-2.347-3.615-1.253-5.503c0.581-1.003,2.553-2.558,3.97-2.775
		c0,0-1.149,2.368-0.053,3.462c0.923,0.919,4.972,2.45,7.782,2.903c8.571,1.385,14.998,1.004,26.113-1.146
		c4.387-0.848,8.373-2.217,8.617-2.234C293.419,205.109,295.197,207.101,297.011,209.818z"/>
	<path fill-rule="evenodd" clip-rule="evenodd" fill="#FFFFFF" d="M299.634,194.204c-17.258,5.41-35.044,7.817-52.263,3.729
		c-0.947-0.225-7.463-1.262-8.003-5.455c-0.335-2.614,1.862-4.198,3.582-4.923c2.16-0.911,4.069-0.911,4.069-0.911
		c-2.938,2.229-5.363,3.968,0.68,5.223c7.73,1.606,9.767,1.606,13.683,1.846c11.518,0.703,16.302-0.364,26.972-2.61
		c1.954-0.41,5.196-1.605,5.979-1.278C296.292,190.644,297.631,191.83,299.634,194.204z"/>
	<path fill-rule="evenodd" clip-rule="evenodd" fill="#FFFFFF" d="M245.372,169.019c-2.182,0.742-11.438,4.402-8.774,6.771
		c1.743,1.55,13.976,3.443,16.608,3.645c13.006,0.993,17.011,1.467,27.366,0.625c8.241-0.665,11.281-0.969,23.265-5.019
		c-3.757,4.716-10.364,7.023-23.212,9.393c-13.841,1.519-21.975,1.85-39.562-1.248c-7.481-1.458-10.291-3.87-11.605-5.501
		c-1.523-1.889,2.649-5.478,6.253-6.814C238.92,169.679,243.009,168.99,245.372,169.019z"/>
</g>
<path display="none" fill-rule="evenodd" clip-rule="evenodd" fill="#FEFEFE" d="M142.826,320.218
	c-9.265-9.332-18.521-18.674-25.244-30.139c-10.418-16.881-16.055-35.357-18.348-54.949c-1.106-7-1.077-14.002-0.007-21.003
	c-0.037-9.458,1.938-18.525,5.299-27.322c6.858-17.595,15.393-34.256,28.793-47.838c31.908-32.342,70.516-44.3,115.219-37.175
	c34.55,7.188,61.721,25.401,81.522,54.599c1.32,1.945,3.129,3.759,2.542,6.478c-17.477,10.091-34.953,20.18-52.431,30.271
	c-3.299,0.539-4.588-2.068-6.088-4.086c-11.875-15.97-28.09-24.372-47.601-24.948c-26.544-0.783-51.281,15.746-59.659,42.448
	c-5.499,17.526-2.781,34.052,5.812,49.905c10.87,15.566,25.002,26.006,44.313,28.453c22.183,2.814,40.103-5.25,54.897-21.355
	c1.896-2.064,3.063-4.826,5.851-6.023c1.126-0.578,2.209-1.336,3.586-0.836c15.823,9.264,31.647,18.525,47.469,27.793
	c2.154,1.26,5.106,1.994,3.817,5.605c-15.924,23.926-36.774,41.768-63.894,51.965c-8.619,3.242-17.641,4.84-26.506,7.09
	c-20.094,1.252-39.921,0.613-59.216-6.311C168.232,337.556,155.297,329.358,142.826,320.218z"/>
<path display="none" fill-rule="evenodd" clip-rule="evenodd" fill="#FDFDFE" d="M298.742,255.14
	c1.398-3.083,0.796-6.465,1.429-9.654c0.821-4.129,0.303-6.905-4.96-6.162c-3.793,0.537-3.395-2.24-3.484-4.676
	c-0.106-2.916,0.137-5.186,4.061-4.988c1.995,0.1,5.107,1.189,5.78-1.49c0.94-3.747,1.044-7.766,1.007-11.665
	c-0.014-1.525-2.099-1.334-3.307-1.177c-4.527,0.592-4.8-1.994-4.861-5.54c-0.065-3.705,1.672-4.67,4.774-4.25
	c4.009,0.544,5.543-1.309,5.607-5.099c0.041-2.398,0.518-4.787,0.581-7.186c0.149-5.547,4.297-3.604,7.194-3.897
	c4.04-0.409,3.215,2.463,3.087,4.795c-0.071,1.308-0.438,2.637-0.292,3.915c0.32,2.792-3.451,7.233,3.318,7.532
	c5.316,0.235,8.649-0.55,8.634-7.034c-0.01-4.2-1.567-10.381,6.754-9.359c3.087,0.379,4.394,1.106,3.882,4.273
	c-0.315,1.937-0.172,3.962-0.6,5.864c-0.94,4.178-0.377,6.105,4.84,6.404c7.074,0.404,2.575,6.182,3.297,9.57
	c-11.619,0.095-9.271-1.46-10.704,9.369c-0.477,3.604,0.087,5.579,4.161,5.041c4.357-0.575,4.181,2.238,4.327,5.304
	c0.172,3.542-1.286,4.84-4.578,4.333c-4.737-0.73-6.167,1.624-6.055,5.932c0.062,2.382-0.666,4.787-0.597,7.167
	c0.166,5.603-3.702,4.683-7.139,4.761c-5.239,0.117-3.025-3.499-3.03-5.951c-0.003-1.521,0.458-3.068,0.313-4.563
	c-0.279-2.848,3.036-7.359-3.631-7.406c-4.796-0.033-8.78-0.069-8.204,6.541c0.224,2.563-0.474,5.203-0.725,7.809
	c-0.256,2.652-1.253,4.662-4.271,4.791C302.567,258.56,299.481,259.163,298.742,255.14z"/>
<g>
	<path fill="#FFFFFF" d="M164.758,269.552c0,9.043-0.868,16.708-2.604,23.002c-1.736,6.293-4.377,11.431-7.921,15.407
		c-3.545,3.979-7.958,6.854-13.237,8.626c-5.281,1.771-11.43,2.658-18.445,2.658c-6.222,0-11.81-0.977-16.764-2.929
		c-4.955-1.954-9.206-4.721-12.749-8.301c-3.545-3.581-6.257-7.921-8.138-13.021c-1.881-5.1-2.821-10.797-2.821-17.089v-7.921
		h26.583c0,16.565,4.628,24.847,13.888,24.847c2.458,0,4.647-0.307,6.564-0.923c1.916-0.613,3.526-1.825,4.829-3.634
		c1.302-1.808,2.295-4.286,2.984-7.433c0.687-3.146,1.031-7.287,1.031-12.424v-96.675l-37.799,0.048l0.015-22.035h82.031v21.83
		l-17.447,0.158V269.552z"/>
	<path fill="#FFFFFF" d="M211.245,253.297c3.992,0,7.583,0.359,10.773,1.075c3.192,0.716,5.904,1.985,8.139,3.808
		c2.234,1.823,3.949,4.297,5.144,7.423c1.193,3.123,1.789,7.096,1.789,11.913v39.451h-15.232v-3.255
		c-2.519,1.52-5.241,2.691-8.17,3.516c-2.93,0.823-6.065,1.236-9.407,1.236c-3.125,0-6.033-0.467-8.724-1.399
		c-2.691-0.933-5.024-2.246-6.999-3.938c-1.976-1.693-3.527-3.711-4.654-6.055c-1.129-2.344-1.693-4.926-1.693-7.747
		c0-15.06,12.391-22.59,37.172-22.59h2.475c-0.044-1.693-0.187-3.179-0.424-4.459c-0.238-1.281-0.747-2.366-1.529-3.256
		c-0.781-0.889-1.911-1.563-3.385-2.019c-1.476-0.455-3.451-0.684-5.924-0.684c-3.082,0-5.523,0.479-7.324,1.434
		c-1.801,0.955-3.027,2.756-3.678,5.402h-15.689C185.726,259.916,194.84,253.297,211.245,253.297z M221.857,289.299h-4.493
		c-13.02,0-19.53,3.169-19.53,9.504c0,2.084,0.846,3.712,2.539,4.884c1.693,1.171,3.971,1.758,6.835,1.758
		c2.865,0,5.62-0.574,8.268-1.726c2.646-1.149,4.773-2.832,6.38-5.046V289.299z"/>
	<path fill="#FFFFFF" d="M307.66,254.795l-23.501,62.172h-12.761l-23.566-62.172h16.601l13.281,39.126l13.28-39.126H307.66z"/>
	<path fill="#FFFFFF" d="M343.856,253.297c3.993,0,7.585,0.359,10.774,1.075c3.19,0.716,5.902,1.985,8.138,3.808
		c2.234,1.823,3.949,4.297,5.144,7.423c1.193,3.123,1.79,7.096,1.79,11.913v39.451h-15.233v-3.255
		c-2.518,1.52-5.241,2.691-8.171,3.516c-2.929,0.823-6.065,1.236-9.407,1.236c-3.124,0-6.032-0.467-8.724-1.399
		c-2.69-0.933-5.023-2.246-6.998-3.938c-1.975-1.693-3.526-3.711-4.654-6.055c-1.129-2.344-1.692-4.926-1.692-7.747
		c0-15.06,12.391-22.59,37.173-22.59h2.474c-0.044-1.693-0.186-3.179-0.424-4.459c-0.238-1.281-0.748-2.366-1.529-3.256
		c-0.781-0.889-1.911-1.563-3.386-2.019c-1.476-0.455-3.45-0.684-5.924-0.684c-3.082,0-5.523,0.479-7.323,1.434
		c-1.802,0.955-3.028,2.756-3.679,5.402h-15.689C318.337,259.916,327.452,253.297,343.856,253.297z M354.468,289.299h-4.492
		c-13.02,0-19.53,3.169-19.53,9.504c0,2.084,0.847,3.712,2.538,4.884c1.693,1.171,3.973,1.758,6.836,1.758
		c2.865,0,5.62-0.574,8.269-1.726c2.646-1.149,4.773-2.832,6.38-5.046V289.299z"/>
</g>
</svg>
