<?xml version="1.0" encoding="utf-8"?>
<!-- Generator: Adobe Illustrator 16.0.0, SVG Export Plug-In . SVG Version: 6.00 Build 0)  -->
<!DOCTYPE svg PUBLIC "-//W3C//DTD SVG 1.1//EN" "http://www.w3.org/Graphics/SVG/1.1/DTD/svg11.dtd">
<svg version="1.1" id="Layer_1" xmlns="http://www.w3.org/2000/svg" xmlns:xlink="http://www.w3.org/1999/xlink" x="0px" y="0px"
	 width="450px" height="450px" viewBox="0 0 450 450" enable-background="new 0 0 450 450" xml:space="preserve">
<g>
	<path fill-rule="evenodd" clip-rule="evenodd" fill="#4A81D8" d="M413.428,311.591c0.015-58.102,0.002-116.205-0.003-174.306
		c0-6.278-1.855-12.022-4.958-17.414c-1.427,0.49-2.977,0.762-4.258,1.501c-23.89,13.799-71.647,39.879-77.635,43.28
		s-31.426,18.105-47.071,27.278c-17.971,8.736-34.632,19.798-52.12,29.394c-1.787,0.98-4.01,1.995-3.783,4.75
		c6.783,4.759,14.403,8.044,21.496,12.261c10.64,6.324,38.5,21.741,40.311,22.867c5.547,3.445,53.016,29.188,55.539,30.592
		c13.446,7.477,26.999,14.787,40.143,22.773c8.837,5.367,26.523,16.365,26.523,16.365c0.798-1.185,3.946-6.45,4.973-11.551
		C412.958,317.735,413.425,313.3,413.428,311.591z"/>
	<path fill-rule="evenodd" clip-rule="evenodd" fill="#4A81D8" d="M396.851,107.775c-30.458-17.596-61.05-34.958-91.598-52.397
		c-21.296-12.32-42.554-24.705-63.903-36.93c-11.15-6.385-22.491-6.07-33.573,0.196c-14.793,8.366-29.462,16.95-44.193,25.424
		c-36.089,20.758-72.168,41.534-108.285,62.245c-11.551,6.624-17.911,16.393-17.987,29.769
		c-0.328,58.069-0.541,110.453-0.747,168.522c-0.009,2.559,0.416,13.883,1.031,17.06c1.667,5.873,1.667,5.873,5.049,10.546
		c24.826-14.861,49.359-30.238,75.532-42.703c0.43-2.127,217.646-126.837,219.123-127.708c14.775-8.715,29.797-17.011,44.503-25.839
		c8.898-5.341,18.55-9.445,26.664-16.088C405.5,114.965,401.74,110.599,396.851,107.775z"/>
	<path fill-rule="evenodd" clip-rule="evenodd" fill="#4A81D8" d="M401.865,324.511c-20.243-11.521-40.589-22.863-60.804-34.434
		c-2.882-1.65-115.979-64.714-115.979-64.714s-107.901,60.731-110.152,62.034c-21.293,12.334-24.521,13.699-45.833,26
		c-2.024,1.168-27.026,18.019-27.026,18.019c2.487,3.895,8.58,9.542,12.537,11.851c12.913,7.539,23.521,13.433,36.514,20.835
		c4.58,2.736,9.114,5.555,13.747,8.201c19.889,11.355,39.807,22.66,59.714,33.986c15.623,9.527,31.189,19.256,47.721,27.057
		c9.893,4.666,20.459,3.393,30.19-2.207c51.143-29.426,102.298-58.832,153.442-88.252c5.017-2.885,9.41-8.125,11.676-11.953
		C407.612,330.933,404.317,325.903,401.865,324.511z"/>
	<path fill-rule="evenodd" clip-rule="evenodd" fill="#FEFEFE" d="M328.702,284.575c-9.289-5.441-18.209-10.662-27.5-16.102
		c-0.535,1.02-0.971,1.756-0.971,1.756c-11.047,16.598-25.107,28.371-43.922,35.447c-5.978,2.248-12.236,3.357-18.387,4.918
		c-13.939,0.869-27.693,0.426-41.079-4.377c-10.211-3.666-19.186-9.354-27.836-15.695c-6.428-6.473-12.85-12.953-17.514-20.908
		c-7.227-11.711-11.137-24.527-12.728-38.119c-0.768-4.857-0.747-9.714-0.006-14.571c-0.026-6.561,1.345-12.852,3.677-18.954
		c4.758-12.206,10.678-23.764,19.975-33.187c22.135-22.436,48.918-30.731,79.93-25.79c23.966,4.987,42.817,17.623,56.552,37.877
		c0.918,1.349,1.818,2.761,2.35,4.157c0,0,13.834-7.985,31.311-18.076c0.586-2.719-1.223-4.533-2.543-6.478
		c-19.801-29.197-46.973-47.411-81.521-54.599c-44.703-7.125-83.312,4.833-115.219,37.175c-13.4,13.583-21.935,30.243-28.793,47.838
		c-3.36,8.797-5.336,17.865-5.299,27.322c-1.069,7.001-1.099,14.003,0.007,21.003c2.293,19.594,7.93,38.07,18.348,54.951
		c6.723,11.465,15.979,20.807,25.244,30.139c12.472,9.141,25.406,17.338,40.126,22.621c19.296,6.924,39.123,7.563,59.217,6.311
		c8.865-2.25,17.886-3.848,26.505-7.09c27.119-10.197,47.971-28.039,63.895-51.965C333.809,286.569,330.856,285.835,328.702,284.575
		z"/>
</g>
<g>
	<path fill="#FFFFFF" d="M268.78,226.483c0,8.438-1.816,15.986-5.449,22.646s-8.711,11.836-15.234,15.527
		c-6.524,3.691-13.828,5.537-21.914,5.537c-7.891,0-15.069-1.787-21.533-5.361c-6.465-3.574-11.495-8.594-15.088-15.059
		c-3.594-6.465-5.391-13.779-5.391-21.943c0-8.555,1.816-16.25,5.449-23.086c3.633-6.835,8.73-12.119,15.293-15.85
		c6.563-3.73,14.023-5.596,22.383-5.596c8.047,0,15.243,1.787,21.592,5.361c6.348,3.574,11.25,8.672,14.707,15.293
		S268.78,218.085,268.78,226.483z M241.944,227.187c0-6.914-1.328-12.363-3.984-16.348c-2.657-3.984-6.29-5.977-10.898-5.977
		c-5.039,0-8.965,1.915-11.777,5.742c-2.813,3.829-4.219,9.239-4.219,16.23c0,6.836,1.396,12.168,4.189,15.996
		c2.792,3.828,6.592,5.742,11.396,5.742c2.93,0,5.566-0.859,7.91-2.578s4.16-4.18,5.449-7.383
		C241.299,235.41,241.944,231.601,241.944,227.187z"/>
	<path fill="#FFFFFF" d="M321.823,233.626c0,4.375-0.723,8.25-2.168,11.621c-1.445,3.373-3.496,5.977-6.152,7.813
		s-5.664,2.754-9.023,2.754c-2.578,0-4.785-0.475-6.621-1.426c-1.836-0.949-3.288-2.18-4.355-3.691h-0.156v4.141h-16.641v-59.218
		h16.641v24.648h0.156c1.302-1.979,3.066-3.541,5.293-4.688c2.227-1.146,4.681-1.719,7.363-1.719c5.052,0,8.926,1.68,11.621,5.039
		S321.823,227.168,321.823,233.626z M304.948,234.134c0-2.681-0.515-4.7-1.543-6.054c-1.029-1.354-2.507-2.031-4.434-2.031
		c-1.693,0-3.105,0.71-4.238,2.129c-1.133,1.42-1.699,3.262-1.699,5.527v2.421c0,2.293,0.508,4.115,1.523,5.469
		c1.016,1.355,2.383,2.031,4.102,2.031c2.005,0,3.555-0.826,4.648-2.48C304.401,239.493,304.948,237.155,304.948,234.134z"/>
	<path fill="#FFFFFF" d="M344.713,255.228c0,3.516-0.69,6.725-2.07,9.629c-1.381,2.904-3.412,5.092-6.094,6.563
		c-2.683,1.471-5.873,2.207-9.57,2.207c-2.031,0-4.244-0.391-6.641-1.172v-12.188c1.459,0.807,2.787,1.211,3.984,1.211
		c1.38,0,2.35-0.463,2.91-1.387c0.56-0.924,0.84-2.324,0.84-4.199v-41.054h16.641V255.228z M345.69,204.056
		c0,2.344-0.854,4.245-2.559,5.703c-1.706,1.459-3.952,2.188-6.738,2.188c-2.709,0-4.929-0.755-6.66-2.266
		c-1.732-1.51-2.598-3.385-2.598-5.625c0-2.291,0.84-4.146,2.52-5.566c1.68-1.419,3.926-2.129,6.738-2.129
		c2.786,0,5.032,0.71,6.738,2.129C344.836,199.91,345.69,201.765,345.69,204.056z"/>
	<path fill="#FFFFFF" d="M354.323,239.485v-11.21h21.367v11.21H354.323z"/>
</g>
</svg>
